<svg width="211" height="305" viewBox="0 0 211 305" fill="none" xmlns="http://www.w3.org/2000/svg">
<path d="M44.6133 84.7807C46.1441 85.5561 50.5969 86.8534 56.1622 85.8399M54.3765 78.4027C56.2595 79.665 62.1239 82.1092 70.5178 81.7879C78.9116 81.4667 86.2886 79.8501 88.9278 79.0819M31.257 88.7944C31.045 91.9715 30.8515 99.1175 31.7733 102.285C32.9255 106.243 36.2292 114.123 36.8435 117.102C37.4579 120.08 39.2985 142.026 40.4698 146.484C41.4069 150.051 44.1385 155.184 45.3872 157.304M32.2013 74.2477C34.9004 61.9688 46.5285 38.0733 71.448 40.7223C102.597 44.0336 120.022 67.8847 129.109 83.0483M43.9772 94.3121C46.8587 99.8727 53.8099 110.507 55.177 112.397C57.2905 115.318 63.1115 123.602 72.1048 123.258C81.0981 122.913 93.0536 108.446 96.5511 108.312C99.349 108.205 107.107 109.576 110.636 110.275M93.5009 80.9084C94.6531 84.8672 98.2758 93.2349 103.548 95.0346C108.821 96.8343 115.802 97.0675 118.633 96.9591M57.7733 101.79L57.7924 102.29M77.8759 91.0134L77.895 91.513M59.8508 90.7025C62.5466 95.7697 68.0418 106 68.4568 106.385C68.8718 106.769 70.9741 106.789 71.9734 106.751M80.1205 110.442C81.1198 110.404 83.5065 110.012 85.0595 108.752C86.6124 107.491 87.9234 105.139 88.3848 104.121M45.5884 110.262C44.9214 114.624 44.8094 123.902 49.6977 126.117C54.5859 128.331 61.7909 128.322 64.7823 128.041M61.3231 129.174L61.5526 135.17M75.179 125.141L74.4857 133.174M72.8238 181.273C73.0971 177.693 73.4482 173.197 73.8329 168.415M118.099 174.536C113.077 178.398 100.314 188.327 89.4431 197.149C78.5725 205.971 65.4144 205.574 60.1941 204.272C56.4537 202.414 48.6582 195.707 47.3998 183.747C46.1415 171.786 53.6969 147.813 57.632 137.321C64.3966 135.395 77.7488 132.148 77.0412 134.577C76.5076 136.409 75.0124 153.754 73.8329 168.415M121.535 94.3462C118.761 95.9535 112.979 100.878 112.04 107.719C110.866 116.27 108.827 128.357 111.994 145.749C114.528 159.662 121.447 187.918 124.59 200.307M104.524 120.516C95.5468 134.369 77.4086 162.484 76.6704 164.113C75.9322 165.742 74.4712 167.66 73.8329 168.415M129.3 88.0447C133.931 87.0335 144.835 86.0491 151.399 90.2012C159.603 95.3912 187.035 119.24 199.741 163.596C209.905 199.081 205.284 212.563 201.703 214.869C192.491 218.223 168.629 224.04 146.877 220.469M129.029 198.636C120.201 203.31 100.97 213.32 94.6664 215.963C88.3629 218.606 72.4115 227.155 65.2237 231.1L66.9018 244.045M150.179 136.782C151.491 144.904 154.605 163.532 156.571 173.064C159.029 184.979 156.007 210.613 146.8 218.471C137.594 226.329 112.918 235.279 106.961 236.508C102.195 237.491 78.5703 244.266 67.3536 247.53L66.9018 244.045M64.7814 232.618C61.4059 231.579 54.636 229.003 53.1178 228.561C51.3869 228.057 46.0275 226.33 46.1996 230.827M53.309 233.557C49.453 233.038 42.3933 233.51 39.9144 236.572C36.5702 240.702 40.1291 245.005 42.795 246.469C45.3508 247.872 48.8671 248.238 53.8635 248.047C57.8605 247.894 64.2604 245.147 66.9018 244.045M102.469 210.66L87.5593 200.223M44.6149 176.348C43.0522 174.74 38.9353 171.762 34.9688 172.714C30.0107 173.904 16.6927 178.917 16.0567 188.449C15.4207 197.98 18.2631 206.878 20.4911 212.797C22.2735 217.532 27.4445 228.876 29.8072 233.956C24.8236 234.48 14.2181 237.155 11.6649 243.657C8.47335 251.785 12.8121 273.635 28.6449 282.036C41.484 288.848 69.3232 298.993 96.8605 299.44C124.398 299.887 159.91 299.529 181.782 282.68C204.625 265.082 205.927 233.721 202.76 216.329M35.3315 286.784C32.3073 290.569 26.9853 298.811 29.8904 301.502C33.5216 304.866 53.3349 299.604 58.6588 294.897M60.461 15.1238L60.136 6.63005M93.0902 17.8781L96.3393 11.249M116.09 30.5078L123.47 27.2231" stroke="black" stroke-width="2" stroke-linecap="round" stroke-linejoin="round"/>
<path d="M200.723 215.406C193.227 221.032 160.001 223.469 145.359 220.027C141.591 226.175 91.9393 240.585 67.3728 248.029L66.7585 245.051C64.446 245.64 61.4236 246.856 57.8415 247.393C53.3639 248.065 40.469 251.06 38.6069 241.625C37.1171 234.076 45.4498 233.024 48.7744 232.73C47.7368 231.769 46.2499 229.524 48.6023 228.233C50.9546 226.942 59.6705 229.811 64.2437 231.637L102.489 211.16L86.541 199.761C84.2476 200.85 80.1605 203.007 74.2222 204.736C67.7813 206.611 57.6389 202.869 53.508 199.525C50.2033 196.849 47.381 183.247 46.6328 176.771C44.5387 174.349 42.2595 174.937 38.9854 173.061C34.8927 170.715 20.6709 178.265 17.8835 183.875C15.0961 189.486 16.8244 195.424 16.9965 199.921C17.1341 203.518 26.0494 222.925 30.307 233.937C19.8527 235.337 12.6917 240.115 11.7607 246.155C9.35546 261.758 18.7504 271.906 21.4206 276.307C24.0909 280.708 46.683 294.38 82.2945 297.995C110.927 300.903 148.956 300.948 178.361 284.812C207.765 268.676 207.046 210.661 200.723 215.406Z" fill="black"/>
</svg>
